<svg width="140" height="130" viewBox="0 0 140 130" fill="none" xmlns="http://www.w3.org/2000/svg">
<path d="M51.7714 86.976C32.3053 86.976 16.5668 71.1339 16.5668 51.7714C16.5668 32.3054 32.4089 16.5669 51.7714 16.5669C71.2375 16.5669 86.976 32.4089 86.976 51.7714C86.976 71.2375 71.2375 86.976 51.7714 86.976ZM51.7714 19.6731C34.0656 19.6731 19.6731 34.0656 19.6731 51.7714C19.6731 69.4773 34.0656 83.8697 51.7714 83.8697C69.4772 83.8697 83.8697 69.4773 83.8697 51.7714C83.8697 34.0656 69.4772 19.6731 51.7714 19.6731Z" fill="#D83294"/>
<path d="M51.7714 76.2075C40.8994 76.2075 32.0983 67.4064 32.0983 56.5344C32.0983 55.706 32.8231 54.9812 33.6514 54.9812H69.8914C70.7198 54.9812 71.4446 55.706 71.4446 56.5344C71.4446 67.4064 62.6434 76.2075 51.7714 76.2075ZM35.3081 58.0875C36.1364 66.4745 43.1774 73.1012 51.7714 73.1012C60.3655 73.1012 67.5099 66.4745 68.2347 58.0875H35.3081V58.0875Z" fill="#D83294"/>
<path d="M44.0057 45.3518C43.1774 45.3518 42.4526 44.627 42.4526 43.7986C42.4526 41.4171 40.2782 39.4498 37.5861 39.4498C34.894 39.4498 32.7196 41.4171 32.7196 43.7986C32.7196 44.627 31.9948 45.3518 31.1664 45.3518C30.3381 45.3518 29.6133 44.627 29.6133 43.7986C29.6133 39.6569 33.2373 36.3435 37.5861 36.3435C41.9349 36.3435 45.5589 39.6569 45.5589 43.7986C45.5589 44.627 44.9376 45.3518 44.0057 45.3518Z" fill="#D83294"/>
<path d="M72.3765 45.3518C71.5481 45.3518 70.8233 44.627 70.8233 43.7986C70.8233 41.4171 68.6489 39.4498 65.9568 39.4498C63.2647 39.4498 61.0903 41.3136 61.0903 43.7986C61.0903 44.627 60.3655 45.3518 59.5372 45.3518C58.7088 45.3518 57.984 44.627 57.984 43.7986C57.984 39.6569 61.608 36.3435 65.9568 36.3435C70.3056 36.3435 73.9296 39.6569 73.9296 43.7986C73.9296 44.627 73.2048 45.3518 72.3765 45.3518Z" fill="#D83294"/>
<path d="M84.6082 105.425C82.5727 105.425 80.6448 104.475 79.4095 102.837L62.6902 80.7463C60.5143 77.8779 61.0805 73.7928 63.9536 71.6169C66.8314 69.4316 70.9165 70.0072 73.0924 72.8803L84.0935 87.405L111.753 42.9887C113.658 39.9378 117.682 39.0019 120.742 40.9064C123.798 42.8062 124.738 46.8304 122.829 49.8907L90.1486 102.346C89.0162 104.176 87.0555 105.318 84.9077 105.416C84.8048 105.425 84.7112 105.425 84.6082 105.425Z" fill="#A1C627"/>
</svg>
