<svg width="125" height="113" viewBox="0 0 125 113" fill="none" xmlns="http://www.w3.org/2000/svg">
<g clip-path="url(#clip0)">
<path d="M32.0271 77.985V85.8137C40.7073 89.1258 49.0882 89.4269 57.4691 85.8137C57.4691 75.8772 57.1698 81.5982 61.9589 74.3717C64.6528 69.2529 66.748 62.3275 67.646 54.4988L67.0473 47.8745C67.646 45.7668 79.918 28.3028 79.918 23.184C79.918 19.2697 74.231 14.1509 68.8432 23.184L59.5644 38.5403L66.4487 10.8388C66.4487 3.01005 57.4691 1.80563 54.476 11.7421L48.1903 34.3249C48.1903 27.7006 49.3875 5.71998 46.6937 2.10673C44.5984 -0.904307 35.9182 -2.40983 36.2175 9.63434L36.8162 35.5293L29.9318 15.3553C25.4421 2.40784 14.9659 3.61225 18.5577 17.7641L25.1428 43.6591C24.8434 44.8635 24.5441 46.9712 24.2448 49.3801C23.0475 48.7779 21.5509 48.1757 19.4557 47.2723C17.9591 46.0679 12.8707 34.0238 1.19727 43.6591L0 44.5624L11.6734 55.7033C19.4557 64.4353 18.2584 68.3496 32.0271 77.985ZM34.7209 76.4794C17.0612 62.6287 23.3468 64.7364 13.7686 54.1977L3.89114 44.8635C11.9727 37.9381 17.6598 49.3801 17.6598 49.3801C23.9455 51.4878 29.3332 55.101 33.5237 60.5209L35.6189 58.7143C33.5237 55.4022 30.5305 52.9933 26.9387 50.8856C27.238 48.1757 27.5373 45.7668 28.1359 43.6591C28.1359 40.0458 18.2584 13.8498 20.9523 10.2365C22.1496 8.42992 24.8434 9.33323 26.9387 15.0542L34.7209 38.2392H39.51L38.9114 9.93544C38.6121 -0.000995098 45.4964 1.20342 45.4964 7.52661V38.2392L49.6869 39.1425L56.2719 14.1509C58.6664 4.81667 65.8501 4.51557 62.8569 15.3553L55.6732 41.8525L59.5644 43.6591C61.9589 39.7447 72.1357 20.7752 75.1289 20.7752C83.2105 20.7752 65.2514 43.0569 64.3535 46.9712L64.9521 54.4988C64.0542 61.7253 62.2582 68.0485 59.5644 73.1673C54.7753 80.3938 54.7753 75.275 54.7753 84.007C48.1903 86.4159 41.9046 86.1148 34.7209 84.007V76.4794Z" fill="#D83294"/>
</g>
<path d="M68.6289 98.2485C66.5341 98.2485 64.5501 97.271 63.2788 95.5855L46.0728 72.8512C43.8335 69.8993 44.4162 65.6953 47.373 63.456C50.3345 61.2072 54.5385 61.7995 56.7778 64.7562L68.0992 79.7038L96.5641 33.9943C98.524 30.8546 102.665 29.8915 105.815 31.8514C108.959 33.8065 109.927 37.9479 107.963 41.0973L74.3305 95.0799C73.1652 96.9628 71.1475 98.1378 68.9371 98.2389C68.8312 98.2486 68.7348 98.2485 68.6289 98.2485Z" fill="#A1C627"/>
<defs>
<clipPath id="clip0">
<rect width="79.918" height="110.656" fill="white"/>
</clipPath>
</defs>
</svg>
