<svg width="117" height="89" viewBox="0 0 117 89" fill="none" xmlns="http://www.w3.org/2000/svg">
<path d="M82.2925 19.4845C82.2846 19.4813 82.2783 19.4782 82.2704 19.475C84.8399 17.4555 86.4602 14.3475 86.4602 10.9675C86.4602 4.97178 81.5028 0.0943717 75.4099 0.0943717C69.3186 0.0943717 64.3627 4.97178 64.3627 10.9675C64.3627 14.3381 65.9752 17.4398 68.5321 19.4593C67.4487 19.7345 63.701 20.8025 61.1931 22.9196C56.9322 26.5151 51.0445 32.2025 47.4327 35.7572C44.939 33.2784 38.6881 27.1505 33.5649 22.8252C31.0554 20.7097 27.3077 19.6417 26.2259 19.3649C28.7828 17.3454 30.3952 14.2453 30.3952 10.8747C30.3952 4.87898 25.4394 0 19.3481 0C13.2551 0 8.29774 4.87898 8.29774 10.8747C8.29774 14.2532 9.9181 17.3627 12.4876 19.3822C12.4813 19.3854 12.4734 19.3885 12.4671 19.3917C8.22667 21.2759 1.86053 28.4104 0.516549 32.7845C-0.549476 36.2432 0.349144 45.9178 0.44706 46.8583C0.44706 51.1805 3.7999 54.7069 8.0719 55.1488L8.56148 64.7369C8.56148 68.0352 11.1752 70.7169 14.3891 70.7169H24.3023C27.5178 70.7169 30.1347 68.0336 30.1268 64.8911L32.7942 38.0315L44.6721 44.8451C46.0003 46.0971 47.8559 46.0656 48.0881 46.0562C48.3439 46.0436 48.5919 45.9697 48.813 45.8407L61.9638 38.1479L64.6217 64.8297C64.6217 68.128 67.2386 70.8113 70.4541 70.8113H80.3673C83.5812 70.8113 86.1949 68.128 86.1933 64.9099L86.6861 55.2416C90.9581 54.7997 94.3093 51.2828 94.3014 47.1037C94.4073 46.0122 95.3059 36.3376 94.2399 32.8804C92.8975 28.5048 86.5313 21.3703 82.2925 19.4845ZM26.9761 64.7338C26.9761 66.2972 25.7758 67.5681 24.3023 67.5681H20.9258V49.6234C20.9258 48.7552 20.2198 48.0506 19.3465 48.0506C18.4731 48.0506 17.7672 48.7552 17.7672 49.6234V67.5696H14.3875C12.9156 67.5696 11.7185 66.2972 11.7169 64.6551L10.2987 36.7402C10.2545 35.872 9.50116 35.1988 8.64045 35.2491C7.76868 35.2932 7.09905 36.0324 7.14327 36.8991L7.91081 51.9843C5.45974 51.5061 3.60249 49.3733 3.59775 46.7058C3.3277 43.9124 2.78758 36.1315 3.53616 33.7062C4.6164 30.1956 10.3461 23.7783 13.7574 22.2637C14.5375 21.9145 15.8847 21.6471 17.4466 21.5276C18.2299 21.4678 18.849 20.845 18.9027 20.0648C18.9548 19.2847 18.4242 18.5848 17.6582 18.4212C14.0653 17.6521 11.4563 14.4797 11.4563 10.8747C11.4563 6.61383 14.9955 3.1457 19.3481 3.1457C23.6975 3.1457 27.2367 6.61226 27.2367 10.8747C27.2367 14.4797 24.6292 17.6537 21.0363 18.4212C20.2704 18.5848 19.7397 19.2847 19.7919 20.0648C19.8455 20.845 20.4646 21.4678 21.248 21.5276C22.8115 21.6471 24.1554 21.9161 24.9356 22.2637C25.0304 22.3062 25.1299 22.3392 25.2325 22.3628C25.272 22.3722 29.225 23.2876 31.5244 25.2269C33.129 26.5796 34.8473 28.1178 36.5277 29.6639C40.1221 32.9732 43.5145 36.3045 45.1948 37.9765C44.5789 38.5899 44.2109 38.9595 44.192 38.9784C44.0135 39.1592 43.8809 39.3794 43.8066 39.6232C43.7024 39.963 43.6503 40.276 43.5918 40.5937L32.2525 34.0899C32.2478 34.0868 32.2414 34.0884 32.2351 34.0852C32.1435 34.0333 32.0346 34.0176 31.9319 33.9846C31.8324 33.9531 31.7376 33.9059 31.6366 33.8949C31.6303 33.8949 31.6255 33.8902 31.6192 33.8902C31.5434 33.8823 31.4739 33.9091 31.3981 33.9122C31.2733 33.9169 31.147 33.9138 31.027 33.9484C30.948 33.972 30.8848 34.0192 30.8106 34.0538C30.6985 34.1057 30.5832 34.1513 30.4837 34.2284C30.4142 34.285 30.3668 34.3621 30.3068 34.4281C30.2357 34.5083 30.1505 34.5728 30.0952 34.6688C30.092 34.675 30.092 34.6829 30.0889 34.6892C30.0462 34.7647 30.0336 34.8559 30.0036 34.9393C29.9641 35.0541 29.9088 35.1642 29.8962 35.2822C29.8962 35.2885 29.8915 35.2932 29.8915 35.2995L26.9761 64.7338ZM91.1539 46.9496C91.1539 49.485 89.2998 51.6021 86.8488 52.0786L87.6147 36.9934C87.6574 36.1252 86.9893 35.3876 86.1175 35.3435C85.26 35.29 84.5051 35.9664 84.4593 36.8346L83.0395 64.8282C83.0395 66.3916 81.8408 67.664 80.3705 67.664H76.9908V49.7162C76.9908 48.848 76.2848 48.1434 75.4115 48.1434C74.5381 48.1434 73.8322 48.848 73.8322 49.7162V67.664H70.4557C68.9806 67.664 67.7819 66.3916 67.774 64.674L64.865 35.3891C64.8634 35.3797 64.8586 35.3734 64.8571 35.364C64.846 35.2727 64.8034 35.1878 64.7765 35.0981C64.7418 34.9833 64.7181 34.8654 64.6612 34.7647C64.6581 34.7584 64.6581 34.7521 64.6549 34.7474C64.6281 34.7034 64.587 34.6798 64.557 34.6389C64.4654 34.513 64.3738 34.3919 64.2522 34.2991C64.2016 34.2614 64.1432 34.2425 64.0895 34.2111C63.9695 34.1403 63.851 34.0695 63.7136 34.0318C63.6142 34.0034 63.5083 34.0113 63.4057 34.0034C63.3141 33.9971 63.232 33.9688 63.1372 33.9783C63.1293 33.9783 63.1214 33.9846 63.1135 33.9846C63.0093 33.9956 62.9114 34.0443 62.8087 34.0774C62.7092 34.1104 62.605 34.1277 62.515 34.178C62.5071 34.1827 62.4992 34.1812 62.4913 34.1859L47.6222 42.8838C47.5622 42.8743 47.499 42.8491 47.4358 42.835C47.39 42.802 47.36 42.7532 47.3095 42.7233L46.7157 42.382C46.5609 42.0785 46.5593 41.5626 46.7252 40.8957C48.4387 39.1781 57.4186 30.2223 63.2335 25.3166C65.533 23.3773 69.4876 22.4603 69.5255 22.4509C69.6265 22.4273 69.726 22.3942 69.8208 22.3518C70.6041 22.0026 71.9481 21.7336 73.51 21.6157C74.2934 21.5559 74.9124 20.9331 74.9661 20.1529C75.0182 19.3728 74.4876 18.6729 73.7216 18.5093C70.1303 17.7417 67.5213 14.5677 67.5213 10.9628C67.5213 6.70191 71.0605 3.23535 75.4099 3.23535C79.7625 3.23535 83.3017 6.70191 83.3017 10.9628C83.3017 14.5677 80.6942 17.7417 77.0998 18.5093C76.3338 18.6729 75.8032 19.3728 75.8553 20.1529C75.909 20.9331 76.5281 21.5559 77.3114 21.6157C78.8717 21.7352 80.2189 22.0042 81.0022 22.3533C84.4119 23.8696 90.1416 30.2852 91.2218 33.7974C91.9688 36.2243 91.4319 44.0052 91.1539 46.9496Z" fill="#D83294"/>
<path d="M76.2387 88.0985C74.1301 88.0985 72.1329 87.1145 70.8532 85.4179L53.5332 62.533C51.2791 59.5615 51.8656 55.3296 54.842 53.0755C57.8232 50.8118 62.055 51.408 64.3091 54.3844L75.7055 69.4309L104.359 23.4187C106.332 20.2582 110.501 19.2887 113.671 21.2616C116.836 23.2297 117.811 27.3985 115.833 30.5687L81.9781 84.9089C80.805 86.8042 78.774 87.987 76.549 88.0888C76.4423 88.0985 76.3454 88.0985 76.2387 88.0985Z" fill="#A1C627"/>
</svg>
