<svg width="24" height="24" viewBox="0 0 24 24" fill="none" xmlns="http://www.w3.org/2000/svg">
<path d="M21.054 18.5604L16.5192 14.0256C17.2032 12.9036 17.5968 11.5836 17.5968 10.1736C17.5968 6.07318 14.0436 2.52118 9.94322 2.52118C5.84282 2.51998 2.52002 5.84398 2.52002 9.94438C2.52002 14.0436 6.07322 17.5968 10.1724 17.5968C11.5368 17.5968 12.8124 17.226 13.9104 16.584L18.4692 21.1452C18.9156 21.5904 19.6392 21.5904 20.0844 21.1452L21.216 20.0136C21.6612 19.5684 21.4992 19.0056 21.054 18.5604ZM4.80482 9.94438C4.80482 7.10518 7.10522 4.80478 9.94322 4.80478C12.7824 4.80478 15.312 7.33318 15.312 10.1736C15.312 13.0116 13.0104 15.3132 10.1724 15.3132C7.33322 15.312 4.80482 12.7824 4.80482 9.94438Z" fill="#41484D"/>
</svg>
