<svg width="29" height="29" viewBox="0 0 29 29" fill="none" xmlns="http://www.w3.org/2000/svg">
<path d="M23.78 13.05H5.22001C4.41961 13.05 4.35001 13.6982 4.35001 14.5C4.35001 15.3019 4.41961 15.95 5.22001 15.95H23.78C24.5804 15.95 24.65 15.3019 24.65 14.5C24.65 13.6982 24.5804 13.05 23.78 13.05ZM23.78 18.85H5.22001C4.41961 18.85 4.35001 19.4982 4.35001 20.3C4.35001 21.1019 4.41961 21.75 5.22001 21.75H23.78C24.5804 21.75 24.65 21.1019 24.65 20.3C24.65 19.4982 24.5804 18.85 23.78 18.85ZM5.22001 10.15H23.78C24.5804 10.15 24.65 9.50185 24.65 8.7C24.65 7.89815 24.5804 7.25 23.78 7.25H5.22001C4.41961 7.25 4.35001 7.89815 4.35001 8.7C4.35001 9.50185 4.41961 10.15 5.22001 10.15Z" fill="#41484D"/>
</svg>
